<svg width="39" height="39" viewBox="0 0 39 39" fill="none" xmlns="http://www.w3.org/2000/svg">
<path d="M35.9667 39L22.3167 25.35C21.2333 26.2167 19.9875 26.9028 18.5792 27.4083C17.1708 27.9139 15.6722 28.1667 14.0833 28.1667C10.1472 28.1667 6.81633 26.8031 4.09067 24.076C1.365 21.3489 0.00144444 18.018 0 14.0833C0 10.1472 1.36356 6.81633 4.09067 4.09067C6.81778 1.365 10.1487 0.00144444 14.0833 0C18.0194 0 21.3503 1.36356 24.076 4.09067C26.8017 6.81778 28.1652 10.1487 28.1667 14.0833C28.1667 15.6722 27.9139 17.1708 27.4083 18.5792C26.9028 19.9875 26.2167 21.2333 25.35 22.3167L39 35.9667L35.9667 39ZM14.0833 23.8333C16.7917 23.8333 19.0941 22.8851 20.9907 20.9885C22.8872 19.0919 23.8348 16.7902 23.8333 14.0833C23.8333 11.375 22.8851 9.07256 20.9885 7.176C19.0919 5.27944 16.7902 4.33189 14.0833 4.33333C11.375 4.33333 9.07256 5.28161 7.176 7.17817C5.27944 9.07472 4.33189 11.3764 4.33333 14.0833C4.33333 16.7917 5.28161 19.0941 7.17817 20.9907C9.07472 22.8872 11.3764 23.8348 14.0833 23.8333Z" fill="#4B69D1"/>
</svg>
